<?xml version="1.0" encoding="utf-8"?>
<!-- Generator: Adobe Illustrator 23.0.6, SVG Export Plug-In . SVG Version: 6.00 Build 0)  -->
<svg version="1.1" id="Layer_1" xmlns="http://www.w3.org/2000/svg" xmlns:xlink="http://www.w3.org/1999/xlink" x="0px" y="0px"
	 viewBox="0 0 382.8 391.4" style="enable-background:new 0 0 382.8 391.4;" xml:space="preserve">
<style type="text/css">
	.st0{fill-rule:evenodd;clip-rule:evenodd;fill:#1A1351;}
	.st1{fill:#68BC45;stroke:#282F72;stroke-width:2;stroke-miterlimit:10;}
</style>
<g>
	<g>
		<path class="st0" d="M98.7,312.3c0.4-0.3,0.8-0.8,1.2-1c0.6-0.4,1.3-0.6,1.9-0.9c0.3,0.7,0.9,1.5,0.8,2.2c-0.1,0.9-0.6,1.9-1,2.8
			c-0.5,1.1-0.7,2-0.1,3.2c0.9,1.7,0.3,2.5-1.6,2.9c-0.4,0.1-0.8,0.5-1,0.9c-0.8,1.5-0.2,2.9,0.5,4.3c0.4,0.7,1.2,1,2,0.4
			c0.3-0.2,0.4-0.6,0.7-0.8c0.4-0.3,1-0.5,1.4-0.7c-0.1,0.5,0,1.1-0.3,1.4c-1.6,2.2-1.2,6,0.5,8.5c0.3-0.8,0.6-1.6,1-2.3
			c0.2-0.3,0.8-0.7,1-0.7c1.2,0.9,3.3,0.2,3.9,2.1c0.7,2.1,0.9,4.2-0.5,5.9c-0.5,0.6-1.6,0.6-2.4,0.9c0.4,1.5,0.6,1.5,2.2,0.4
			c1.9-1.4,4.1-2.3,6.5-2.6c1.2-0.1,2.8,1,2.8,2.2c0,1.3-0.1,2.7-0.5,3.9c-0.6,1.5-1.4,2.9,0.7,4.3c-1.7,0.5-2.3,1.4-2.5,2.8
			c-0.1,0.9,0.1,1.6,1.3,1.5c0.7,0,1.4-0.1,2.1,0c0.4,0.1,1,0.4,1.2,0.7c0.6,1.3,1.7,1.2,2.7,1c3.4-0.7,3.9-0.4,4.7,3.1
			c0.3,0,0.6,0.1,0.9,0c1.1-0.5,1.9-0.9,2.8,0.6c0.7,1.1,3.2,0.8,4.4-0.2c0.8-0.7,1.6-1.5,2.6-2c0.9-0.5,1.7,0.1,1.8,1.2
			c0.2,1.9-0.1,2.3-1.8,3.6c0.3,1.3,2.8,1.3,1.9,3.5c-1.8-1.4-4.6-1.1-5.1-4.2c-1.1,0.2-2.2,0.5-3.2,0.7c-0.3,0.1-0.6,0.1-0.9,0
			c-1.7-0.5-2-0.2-2.4,1.6c-0.2,0.8-0.8,1.6-1.4,2.1c-0.3,0.2-1.4-0.2-1.8-0.7c-0.4-0.6-0.4-1.5-0.4-1.9c-1.2-0.6-2.4-0.9-3.4-1.6
			c-0.9-0.7-1.6-0.8-2.6-0.2c-1.1,0.7-2.3,1.5-3.5,2c-2.4,1.2-4.7,1.6-7.1-0.3c-0.8-0.7-2.2-0.9-3.3-0.9c-3.6,0.3-6-2.5-5.8-5.6
			c0.1-1-0.5-1.6-1.2-2.4c-1.1-1.4-2.5-1.4-3.9-1.8c-1.7-0.4-2.6-1.7-3.3-3.2c-0.2-0.4-0.3-0.7-0.4-1.1c-2.2,1.3-4.1,1-5.6-1
			c-0.7-0.9-1.6-2-1.8-3.1c-0.4-2.6,0-2.9,2.4-4c-0.2-0.2-0.3-0.5-0.5-0.6c-1.1-0.6-1.8-1.4-2.1-2.7c-0.1-0.5-0.9-0.8-1.4-1.2
			c-0.5-0.3-1.1-0.6-1.7-0.9c-0.8-0.4-1.5-0.7-2.4-1.1c-0.2,2.1,1.3,2.1,2.2,2.6c0.5,0.3,1,0.7,1.4,1.1c0.2,0.2,0.2,0.7,0,0.9
			c-0.2,0.2-0.6,0.2-0.9,0.2c-0.2,0-0.4-0.1-0.6-0.1c-1.9-1.1-3.8-2.1-5.6-3.3c-1.5-0.9-1.4-1.8-0.1-3c0.1-0.1,0.2-0.5,0.2-0.6
			c-0.1-0.2-0.4-0.3-0.7-0.3c-1.8,0-2.6-0.7-2.6-2.5c0-0.8-0.1-1.6-0.3-2.4c-0.3-1.3-1-1.7-2.4-1.5c-0.4,0.1-0.8-0.1-1.3-0.1
			c0-0.4,0.1-0.8,0.1-1.2c0.1-1.1,0.1-2.2,0.3-3.2c0.2-0.8,0.5-1.7,1-2.2c1.4-1.4,1.5-2.9-0.1-4c-2.5-1.7-2.4-3-1.5-5.5
			c0.2-0.5,0.4-1,0.5-1.5c0.3-1.4-0.4-2.2-1.8-1.9c-0.4,0.1-0.8,0.2-1.2,0.2c-0.8,0.1-1.2-0.3-1.2-1.1c-0.1-3.1,0.6-5.7,3.7-7.2
			c0.9-0.5,0.8-1.5-0.1-1.9c-0.4-0.2-0.9-0.3-1.4-0.3c-1.5-0.1-2.7-1.2-2.7-2.6c0-2.9-0.3-5.8,1-8.5c0.2-0.5,0.3-1.1,0.2-1.6
			c-0.2-0.7-0.6-1.8-1-1.9c-1.1-0.1-1.5,0.9-1.7,1.9c-0.2,1.3-0.4,2.6-0.6,3.9c-1.9,0.3-2.5,0-2.7-1.6c-0.4-2.3-0.5-4.6,0.2-6.9
			c0.4-1.1-0.2-2.5-0.3-3.7c-0.2-1.7-0.5-3.4-0.5-5.2c-0.1-1.9,0.8-2.7,2.7-3c2-0.3,2.5-1.1,1.9-3c-0.5-1.4-0.7-2.8-0.1-4.2
			c0.8,0.2,1.4,0.4,1.9,0.5c0.3-2.2,0.5-4.3,0.9-6.3c0.2-1.2,0.8-2.1,2.3-2.1c0.3,0,0.9-0.8,0.9-1.3c0.1-1.7,0-3.4,0.1-5.1
			c0-0.4,0-1,0.3-1.3c1.6-1.9,3-4.1,4.9-5.6c1.8-1.3,2.7-2.7,2.9-4.8c0.1-0.6,0.6-1.1,0.8-1.6c0.7-2,2.1-3.9,2-5.9
			c-0.1-2.4,0.4-4.3,1.6-6.3c0.7-1.3,0.8-3.1,1-4.7c0.2-1.8,1.4-3,3.1-2.8c2.6,0.3,4-0.7,5.1-3.1c0.7-1.4,1.9-2.6,3-3.8
			c0.4-0.4,1-0.6,1.6-1c-1.8-0.5-1.8-0.5-0.3-3.7c-1.5-1-1.2-2-0.3-3.3c0.6-0.8,1-1.8,1.6-3c-1.9,0-3.3,0.3-4.3,1.4
			c-0.1,0.1-0.2,0.3-0.3,0.3c-1.9-0.1-3.1,1.4-4.8,1.8c-0.1,0-0.4,0-0.4,0c-0.9,1.5-2.4,2-4,2.4c-1.1,0.3-2,1-3,1.4
			c-0.9,0.4-1.3,1-1.4,2.1c-0.1,1.8-0.2,3.5-1.8,5.1c-1,1-1.8,2-3,2.8c-0.6,0.4-1,1.2-1.3,1.9c-0.8,1.9-1.5,2-2.9,0.2
			c-0.1,1.1-0.1,2.1-0.2,3c-0.1,0.5-0.1,1.2-0.5,1.5c-1.8,1.4-1.9,3.6-2.4,5.5c-0.2,0.6,0.6,1.5,0.9,2.2c0.7-0.3,1.4-0.6,2.1-1
			c0.3-0.1,0.4-0.4,0.7-0.6c1.2,1.2,0.9,3.3-0.7,4.1c-0.8,0.4-1.7,0.5-2.6,0.7c-0.9,0.2-2-0.5-2.8,0.8c-0.1,0.2-1.3-0.3-2.3-0.5
			c-0.2,0.6-0.4,1.6-0.6,2.6c-0.3,1.5-0.7,2.9-2.2,3.7c-0.3,0.2-0.5,0.6-0.6,1c-0.1,0.8-0.5,1-1.2,0.8c-0.3-0.1-0.7,0.1-0.8,0.3
			c-0.1,0.3-0.1,0.9,0.1,1c1.5,0.6,1,1.9,1,2.7c1,0.5,1.8,0.9,2.6,1.3c0.3-0.2,0.8-0.7,1.3-0.6c0.6,0.1,1.2,0.6,1.5,1.1
			c0.8,1.6-0.2,3.6-2.2,4.5c-1.6,0.8-3.2,0.5-3.9-1.2c-1.3-2.9-2.4-5.9-3.4-9c-0.6-1.6-2.1-3.2-3.7-3.3c-1.7-0.2-2.9-2.7-2.2-4.8
			c0.2-0.6,0.5-1.1,0.6-1.7c0.2-0.8,0.2-1.3-0.6-2.1c-1.7-1.6-2.3-3.8-2.6-6.1c-0.1-0.7,0-1.4,0-2c-0.2-0.1-0.3-0.2-0.4-0.2
			c-1.5,0.1-2.7-0.2-3.2-1.8c-0.4-1.6,0.4-4,1.8-4.6c1.1-0.4,2.3-0.5,3.5-0.4c0.9,0.1,1-0.2,1.1-0.9c0.2-1,0.6-2,0.7-3
			c0.1-0.8,0.1-1.7,0-2.5c0-0.5-0.2-1-0.2-1.5c0-0.3,0.3-0.8,0.5-0.9c0.3-0.1,0.7,0.2,1,0.4c0.5,0.4,1,0.8,1.8,1.5
			c0.2-2.2,0.3-3.9,0.6-5.6c0.3-1.9,0.7-3.9,1.4-5.6c0.5-1.1,1.5-2,2.5-2.8c1-0.7,1.2-1.5,0.7-2.4c-2.1-4.3-1.8-5.9,1.9-8.8
			c0-0.1-0.1-0.2-0.1-0.2c-0.8-0.4-2-0.7-1.5-1.9c0.2-0.6,1.2-0.9,2-1.1c1.8-0.7,3.4-0.4,4.5,1.5c0.6,0.9,1.5,0.9,2.4,0.4
			c0.9-0.6,0.9-1.5,0.5-2.5c-0.4-1.1-0.6-2.2-0.9-3.5c-2.4-1-2.9-4-2.3-6.4c0.6-2.5,1.5-4.8,4.1-6.2c1.6-0.9,3-2.3,2.8-4.6
			c-0.1-1.1,0.6-1.9,2.1-2c2.5-0.2,4.9-0.8,6.8-2.6c1.2-1.2,1.6-2.6,1.3-4.2c-0.2-1,0.2-2.2-1-2.9c-0.1-0.1,0-0.7,0.2-0.9
			c1.3-1,2.6-2.1,3.9-3c0.3-0.2,0.8-0.3,1.1-0.2c1.6,0.4,2.3-0.2,2.7-1.8c0.5-2.2,1.7-3.1,3.5-3.1c1.5,0,2.1,0.8,1.7,2.3
			c-0.3,1-0.6,2.1-0.7,3.1c0,0.3,0.5,1,0.9,1.1c0.3,0.1,1-0.3,1.2-0.6c0.6-1.4,1.4-2.5,3.1-2.8c1.3-0.3,1.2-1.3,0.4-2.5
			c-0.5-0.7-0.4-1.9-0.1-2.8c0.6-1.8,3.8-3.7,5.7-3.3c0.8,0.2,1.7,1,2.1,1.7c0.7,1.5,1.4,1.8,2.8,1c1.2-0.6,2.4-1.1,3.7-1.5
			c0.5-0.2,1.3,0,1.8,0.3c1.3,0.7,2.3,0.5,3.1-0.6c0.9-1,2-1.4,3.2-1.3c1.3,0.1,2.3-0.3,3.1-1.3c0.7-0.9,1.6-1.3,2.7-0.7
			c0.2,0.1,0.6,0,0.9-0.1c2.3-1,2.8-0.9,4.2,1.2c2.5-0.7,4.1,1.6,6.2,1.9c0.2-1,0.4-1.9,0.6-3c-1.5-0.8-0.4-1.8,0.1-2.8
			c0.5-1,1-1.9,1.5-2.8c0.2-0.3,0.2-0.8,0.5-0.9c1.9-0.7,1.8-2.9,3.2-4c0.1-0.1,0-0.4,0-0.7c-1.5,0.3-2.9,1.2-4.4,0
			c0.1-0.2,0.3-0.5,0.4-0.8c-2.5-1.2,0-3.4-1.2-5.1c-0.4,0.3-1,0.5-1.3,0.9c-1.4,1.5-3.1,2.3-5.2,2.1c-1.7-0.2-3.4-0.1-4.9-0.6
			c-1.2-0.5-2.1-1.7-3-2.8c-0.8-1-1.7-1.7-3-1.4c-1.3,0.2-2.6,0.4-3.8,0.8c-0.7,0.3-1.3,0.9-1.9,1.5c-0.6,0.6-1.1,1.5-1.8,2
			c-1.2,0.9-1.9,0.6-2.6-0.8c-0.3-0.5-1.1-0.7-1.8-0.8c-0.1-0.4-0.2-0.7-0.3-1.2c-1.5,0-3,0-4.4,0c0,0-0.1,0-0.1,0
			c-1.3-0.2-1.9,2.5-3.6,1c-1.2,0.7-2.4,1.4-3.6,2c-0.6,0.3-1.3,0.3-2,0.5c-0.5,0.1-1,0.3-1.5,0.5c-1.5,0.8-2.7,0.4-3.2-1.1
			c-0.1-0.2-0.1-0.4-0.2-0.6c-1-2.6-2.7-2.9-4.7-0.8c-1.1,1.1-2.8,1.9-2.5,4c-0.4,0-0.6,0.1-0.8,0c-2-0.5-3.1,0.4-2.8,2.5
			c0.3,1.8-0.2,2.3-2,2.4c-1.9,0-1.9,0-3,1.4c0.7,0.3,1.4,0.4,1.9,0.7c0.7,0.5,1.5,1,1.8,1.8c0.2,0.4-0.3,1.6-0.7,1.7
			c-0.8,0.3-1.8,0.1-2.7,0c-0.2,0-0.3-0.4-0.6-0.5c-0.4-0.1-0.8-0.1-1.2-0.2c0,0.4-0.1,0.9,0.2,1.2c1.4,1.9,1.3,1.8,0,3.7
			c-0.7,0.9-1.2,2-1.6,3.1c-1,2.5-3.3,4-6.1,4c-1,0-1.6-0.4-2.1-1.5c-0.5,1.6-1.1,3.2-1.7,4.8c-0.3,0.8-0.5,1.7-1,2.2
			c-1.3,1.3-2.5,2.7-3.1,4.5c-0.2,0.5-1.5,0.8-2.4,0.8c-1.1,0-1.7-0.9-1.6-1.9c0.1-1.6,0.5-3.1,0.8-4.6c0.1-0.4,0.5-0.8,0.9-1.3
			c0.3,0.8,0.5,1.3,0.6,1.7c0.5,1.8,1.1,2,2.5,0.9c2.1-1.6,2.6-3.8,0.8-5.8c-1.8-2-1.2-4-0.6-6.1c0.3-1.2,0.9-2.3,1.2-3.5
			c0.2-0.8,0.5-1.1,1.2-1.2c2.1-0.2,3.2-1.4,3.4-3.5c0.1-0.8,0.3-1.7,0.4-2.5c0.1-1.1,0.4-2.4,0.1-3.4c-0.3-1.3,0.1-2.2,1.1-2.8
			c1.2-0.8,1.4-1.8,1.4-3c-0.1-2.1,0.6-3.8,2.2-5.2c0.4-0.4,0.7-1,0.9-1.6c0.6-1.8,4.4-3.3,5.8-2c0.5,0.4,0.7,1.3,0.8,1.9
			c0.2,2.1,1.2,2.8,3.2,2c2.1-0.8,2.2-1.1,1.9-3.2c-0.3-2.1,1.3-3.4,2.3-5c1.8-2.8,5-3.1,7.8-3.8c1.1-0.3,1.4-0.6,1.4-1.8
			c0.1-2.9,2.3-4.3,4.5-5.4c1.5-0.7,3.4-1.6,4.6-0.2c0.7,0.9,0.2,2.9,0.2,4.4c0,0.1,0,0.2,0.1,0.6c0.8-0.1,1.6-0.2,2.3-0.4
			c0.8-0.2,1.4-0.7,2.2-0.8c1.9-0.4,3.1,0.6,3.8,2.9c0.6-0.9,1-1.4,1.3-2c0.7-1.5,1.7-2.4,3.6-2.5c1,0,2.2-0.4,3.1-0.9
			c2.2-1.5,4.6-1.2,6.9-0.7c0.3,0.1,0.5,1.1,0.8,1.9c0.1-0.1,0.6-0.3,0.7-0.7c0.4-2,2-2.8,3.5-3.8c0.2-0.2,0.6-0.3,0.8-0.2
			c2.2,0.6,4.4,1.2,6.6,1.9c0.3,0.1,0.5,0.9,0.7,1.3c1,0.8,2.7-1.4,3.5,0.9c2.2,0.2,4.3-0.6,6.4-1.6c1.1-0.6,2.4-1,3.4,0.4
			c0.4,0.5,1.4,0.4,2.1,0.7c1.6,0.6,1.8,2,0.5,3.1c-1.1,0.8-2.3,1.6-3.4,2.4c-1.1,0.8-2,1.8-1.7,3.5c3,0.7,4.9-1.1,6.9-2.9
			c0.9,0.4,1,1,0.6,1.9c-0.7,1.8-0.5,2,1.5,2.3c1.5,0.2,3,0.6,4.5,0.9c1.1,0.2,1.5-0.3,1.5-1.4c0-1.3,0.3-2.7,0.6-4
			c0.4-1.7,1.5-2.1,3.1-1.6c0.5,0.2,1.3,0,1.9-0.2c1.5-0.5,2.9-1.1,4.5-1.5c0.5-0.1,1.1,0,1.6,0.3c1,0.6,1.9,1.3,2.7,2
			c2,1.8,4.6,2.1,6.9,0.6c1.1-0.7,1.8-3.9,1.2-5.5c-0.9-2.3-0.3-3.4,2-4.2c0.5-0.2,0.9-0.7,1.4-0.9c0.4-0.2,0.9-0.3,1.3-0.4
			c0.8-0.3,1.7-0.6,2.8-1c-0.6-0.7-0.9-1-1.2-1.3c0.1-0.2,0.1-0.4,0.3-0.5c0.6-0.6,0.7-1.1,0.3-2c-0.6-1.2,0-1.9,1.3-1.8
			c1.5,0.2,4.2-1.2,4.8-2.5c0.6-1.4,0.1-3.9-1.3-5c-1.4-1.2-3.1-1-4.8-0.7c-0.7,0.1-1.4,0.2-2.1,0.2c-1.4,0.1-2.1-0.7-2.4-2
			c-0.1-0.3-0.1-0.6-0.1-0.9c-0.9-3.6-1.6-4-5.1-3.1c-0.5,0.1-1,0.3-1.4,0.2c-0.4-0.1-1-0.5-1.1-0.8c-0.1-0.4,0.2-1,0.5-1.3
			c0.6-0.5,1.4-0.9,2.3-1.4c-1.1-0.7-1.8-0.5-2.5,0.3c-0.5,0.5-1.1,1.1-1.7,1.2c-1.7,0.3-3.5,0.4-5.2,0.4c-1.4,0-2.1-1.1-1.7-2.5
			c0.7-2.4,0.7-2.3-1.6-3.4c-1.6-0.7-3.2-1.5-5-0.8c-0.3,0.1-0.7,0.3-1.4,0.6c0.9,0.3,1.5,0.4,1.9,0.7c0.5,0.3,0.9,0.8,1.3,1.3
			c-0.5,0.4-1.2,1.2-1.5,1c-1.3-0.5-2.8-1-3.8-1.9c-1.5-1.4-2.9-2.3-5-1.7c-0.2,0.1-0.4,0-0.6,0.2c-2.2,2.5-5.1,2.9-8.2,2.8
			c-1,0-2.1-0.4-3.4-0.6c-0.2,0.4-0.7,1.1-1.1,1.8c-1.1,1.8-2.9,2.4-4.1,1.1c-0.5-0.5-0.4-1.4-0.6-2.1c0.6,0,1.2-0.1,1.7,0
			c0.8,0.2,1.3,0.2,1.5-0.8c0.5-2.2,1.5-3,3.9-3.1c1.4-3.8,5-3.8,8.2-4.4c1.7-0.3,3.4-0.1,4.5,1.8c0.5,1,2.8,0.8,3.8-0.1
			c0.6-0.6,1.2-1.2,1.8-1.8c1.9-1.8,4.2-2,6.6-1.6c0.5,0.1,1,1,1.3,1.6c0.4,0.8,0.9,1,1.4,0.3c1.9-2.3,4.5-3.3,7.2-4
			c0.5-0.1,1,0.2,1.7,0.3c-0.3,2.1-2.8,1-3.5,2.6c1.2,0,2.5,0,2.3,1.7c0.7,0,1.5,0.4,2,0.1c1.4-0.8,2.6-1.9,4.3-1.3
			c0.7-2.1,2.7-2.9,4.6-2c0.9,0.4,1.8,0.6,2.8,0.7c1,0.1,2.1-0.1,2.5,1.1c0.3,1.2,0.1,2.2-1.1,3.1c-1.8,1.5-4,1.5-6.1,2.1
			c-0.3,0.1-0.7-0.2-1.1-0.2c-0.1,0.1-0.1,0.3-0.2,0.4c1.5,0.6,2.9,1.4,4.4,1.9c0.4,0.1,1-0.4,1.5-0.7c0.5-0.4,0.9-1.3,1.3-1.3
			c0.7,0,1.2,2,0.7,2.8c-0.1,0.2-0.3,0.3-0.3,0.5c-0.1,0.8-0.4,1.8-0.2,2.5c0.4,1,1.4,1.4,2.1,1.2c0.6-0.8,1-1.3,1.4-1.8
			c0.4,0.4,0.9,0.9,1.5,1.4c0.3-0.3,0.7-0.8,1.3-1.1c0.5-0.2,1.1,0,1.9,0c-0.4,1.2-0.7,1.9-1.1,2.7c0.6,0,1,0,1.3,0
			c1.2,0.2,2.4,0.3,2.4,2c0,1,0.8,1.1,1.7,1.3c0.7,0.2,1.6,0.6,2,1.2c0.5,0.7,0.9,1.2,1.9,1.1c1.2,0,1.9,0.8,2,1.6
			c1.2,0.5,2.5,0.7,3.1,1.5c0.8,1.1,1.2,2.5,1.6,3.9c0.1,0.2-0.4,0.7-0.7,0.9c-1.1,0.6-1.2,1.6-0.9,2.6c0.1,0.4,1.1,0.7,1.7,0.7
			c2.1,0.1,2.5,0.7,2.2,2.8c-0.2,1.5-0.1,3-1,4.3c-0.4,0.5-0.7,1.1-1.1,1.7c0.1,0.1,0.3,0.3,0.4,0.4c0.4-0.2,0.9-0.4,1.3-0.6
			c1.6-0.8,2.5-0.2,2.7,1.6c0.1,1.2,0.1,2.3-0.8,3.3c-0.3,0.3-0.2,0.9-0.2,1.3c0.5,0,1.2,0.1,1.5-0.2c0.6-0.5,1.2-1.2,1.6-1.9
			c0.5-0.9,1.1-2,2.3-1.8c0.8,0.2,1.5,1.1,2,1.8c1.3,1.7,1.1,3.9,0.8,5.8c-0.3,1.7-2.1,1.9-3.5,2.2c-1.4,0.3-2.5,1.4-2.3,2.7
			c0.1,0.4,0.9,1.1,1.3,1c0.8-0.1,2-0.6,2.1-1.1c0.4-1.5,1.1-2.3,2.5-2.8c0.5-0.2,0.9-1.3,0.9-1.9c0.1-1.9,0.4-3.7,1.7-5.3
			c-1.3-3.1-0.9-4.1,2.1-5.8c0.4-0.2,0.9-1,0.8-1.4c-0.6-2.1,0.1-3.2,2.3-3.3c0.3,0,0.6-0.2,0.9-0.3c-0.3-0.2-0.6-0.5-0.9-0.6
			c-1.9-0.6-2.4-1.4-1.7-3.6c-0.9-0.2-1.8-0.3-2.6-0.6c-0.6-0.2-1.2-0.6-1.8-0.9c-0.5-0.2-0.9-0.6-1.4-0.6c-2-0.2-2.2-0.6-2.4-2.5
			c-0.1-0.8-0.5-1.5-0.9-2.2c-0.3-0.6-0.8-1.1-1.1-1.7c-0.7-1.2-1.4-2.4-2.1-3.7c0-0.1-0.2-0.2-0.2-0.2c0.3-2.1-1.2-2.4-2.7-2.7
			c-0.1,0-0.1-0.2-0.2-0.3c0.2-0.1,0.4-0.4,0.6-0.4c1.6-0.2,2.6-0.9,3.1-2.5c0.1-0.4,0.8-0.7,1.5-1.4c0,1.5,0,2.5,0,3.1
			c1.3,0.6,2.3,1.2,3.4,1.6c0.4,0.1,0.9-0.1,1.3-0.2c1.1-0.3,2.2-0.8,3.3-1.1c0.9-0.2,1.3,0.5,1,1.2c-0.4,1,0.2,1.3,0.8,1.6
			c1.2,0.7,2.2,1.3,1.3,3c-0.5,0.9,1.3,2.5,2.4,2.4c1.6-0.2,3.1-0.4,4.7-0.6c0.4,0,0.8,0,1.2,0c2.6,0.3,3.3,1.8,2.1,4.4
			c1.4,0.5,3.1,0.7,3.4,2.5c2.9,0.1,3.2,0.5,4.1,3.2c0.6,1.9,0.9,3.8,0.3,5.7c-0.7,2.2-0.8,2.3-2.9,2.4c-0.6,1.6-1.3,3.2-1.7,4.8
			c-0.2,0.6,0.2,1.9,0.6,2c1.6,0.5,1.9,1.5,1.6,3c1.9,0.1,3.7,0.2,5.5,0.4c0.9,0.1,1.8,0.3,2.6,0.6c2.3,0.7,3.2,3.2,1.9,5.3
			c0,0-0.1,0.1-0.1,0.1c-0.3,0.8-0.6,1.7-0.9,2.5c0.9,0.2,1.8,0.6,2.6,0.5c1.5-0.1,1.9,0.8,2.1,1.8c0.3,1.8-0.1,3.5-1.2,4.9
			c-0.6,0.7-0.7,2.6-0.1,3.2c2.8,3.1,2.9,5.8,0.3,9c-0.1,0.1-0.1,0.2-0.2,0.3c0.1,0.1,0.2,0.2,0.2,0.3c2.8-1.7,5.5-3.4,8.3-5.1
			c0.6-0.4,1.1-0.8,1.7-1.2c1.3-1,2.1-2.2,2-3.9c0-0.6,0.1-1.2,0-1.8c-0.2-1.3,0.4-2,1.4-2.7c0.6-0.4,1.2-1.1,1.2-1.7
			c0-1.9,0.8-2.9,2.6-3.2c0.2,0,0.4-0.1,0.5-0.2c0.1,0,0.1-0.2,0.2-0.4c-0.3,0-0.6-0.2-0.8-0.1c-2.1,0.7-3.1,0-3.4-2.5
			c-0.1-1.3-0.2-2.5-1.3-3.5c-0.3-0.3-0.3-1-0.3-1.5c0-1-0.3-1.6-1.5-1.6c-0.5,0-1.5-0.6-1.5-0.9c0.1-0.6,0.4-1.5,0.9-1.8
			c1-0.6,2.2-0.8,3.5-1.3c-1-1.1-1-2.4,0.3-3.7c-2.1,0.4-2.3-0.3-1.9-1.9c0.3-0.9-0.2-1.8-1.3-2.2c-0.4-0.1-1-0.6-1-0.9
			c0.1-1.3-0.8-1.5-1.6-1.7c-1.1-0.3-1.6-1.2-1.4-2.1c0.2-0.6,1.1-1,2-1.7c0.1-1.1,0.8-1.4,2.4-0.5c1,0.6,2.1,1.1,3.4,1.7
			c-2.1,0.9-2,2.8-1.7,4.7c1.3,0.3,2.7,0.3,3.7,1c0.9,0.6,1.3,1.9,2,3.2c3.4,0.5,3.4,0.5,3.6,3.6c1.5,0.1,3.2-0.1,4.2,1.5
			c1,1.5,0.4,3.1-0.2,4.6c0.4,0.2,0.7,0.4,1,0.6c1.3,0.8,1.5,1.9,0.6,3.2c-0.7,1-1.5,2-2.1,3c-0.4,0.7-0.1,1.4,0.8,1.8
			c2.1,1,2.6,2.9,1.2,4.9c-1.1,1.5-2.2,3-3.5,4.7c1.5-0.3,2.7-0.5,3.9-0.7c1-0.2,1.7,0.3,2,1.2c0.3,0.8,0.1,1.7-1,2
			c-0.3,0.1-0.6,0.4-0.9,0.6c1.4,0.7,1.8,1.4,1,2c-0.7,0.5-1.5,0.9-2.5,1.4c1.1,0.9,2.7,1.2,2.2,2.8c1,0,1.9,0,2.8,0
			c1.9,0.1,2.8,0.7,3.3,2.6c0.6,2.4,1.2,4.7-0.8,6.9c-0.9,1-1.2,2.2,0,3.7c2,2.5-0.2,7.3-2.8,7.8c-2.2,0.4-4.2,1.3-6.3,2
			c-2.2,0.8-2.4,3-0.8,4.6c0.2,0.2,0.8,0.4,1.1,0.3c0.3-0.1,0.5-0.6,0.5-0.9c0-1.6,0.9-2,2.2-2c1,0,2,0.1,3,0.4
			c1.1,0.3,1.6,1.7,1,2.7c-0.2,0.3-0.5,0.6-0.9,1.1c0.6,0.1,1.1,0.3,1.5,0.3c0.7,0,1.4,0,2.1,0c1.5,0.1,2.6,0.9,2.5,2.1
			c-0.3,2.9,2.4,3.1,4.4,2.4c0.7-0.2,1.3-0.7,1.8-1.3c0.6-0.7,1-1.3,2-1.2c0.2,0,0.7-0.4,0.7-0.7c0.1-0.3-0.2-0.7-0.4-1
			c-0.5-0.7-1.4-1.4-1.6-2.2c-0.3-1.7,0.5-2.8,2.3-3.3c1.3-0.3,2.6-0.4,3.9-0.7c1.1-0.2,2.2-0.6,3.3-0.9c0-0.1-0.1-0.3-0.1-0.4
			c-0.2-0.1-0.5-0.2-0.7-0.2c-1.2-0.2-2.2-0.8-2.3-2c-0.1-1.2,0.6-2.1,1.7-2.7c0.9-0.5,1.7-1,2.7-1.5c-0.5-1.3,0-1.9,1.4-2.1
			c1.2-0.2,1.6-1.2,1.4-3.2c-0.1-1.2-1.2-1-1.9-1.3c-0.2-0.1-0.5,0.2-0.7,0.3c-0.8,0.2-1.8,0.7-2.4,0.4c-0.6-0.2-1.3-1.3-1.2-1.9
			c0.3-1.9,0.8-3.9,1.5-5.7c0.2-0.6,1.3-0.8,2.2-0.8c0.2-0.4,0.3-1,0.6-1.3c1.1-0.9,0.5-1.9-0.1-2.4c-3.3-2.6-2.1-5.6-0.7-8.5
			c0.5-1.1,1.1-2.2,0.4-3.4c-1.9-3.1-0.3-5.4,1.8-7.5c1.5-1.6,1.7-3.8,0.2-5.4c-0.7-0.7-0.7-1.3-0.5-2.2c0.4-1.9-0.2-3.7-1-5.4
			c0-0.1-0.1-0.2-0.2-0.2c-2,0.1-2-1.7-2.8-2.9c-0.3-0.5-1-0.7-1.6-0.9c-1.3-0.5-2.5-0.9-2.3-2.6c0.3-2.1,1.5-3.5,3.4-3.4
			c1.8,0.1,3.2-0.3,4.3-1.8c0.9-1.3,0.6-2-1-2.5c-0.7-0.2-1.6-0.6-1.8-1.1c-0.4-1,0.2-1.9,1.2-2.5c0.2-0.1,0.4-0.3,0.7-0.6
			c-0.5-0.2-0.8-0.4-1.1-0.5c-2-0.4-3.9-0.8-5.9-1c-1.5-0.1-1.9-1.6-1.3-3.7c0.1-0.5,0.4-0.9,0.7-1.3c0.8-1.6,0.3-3.3-1-4.3
			c-1.1-0.8-1.7-0.6-2.2,0.7c-0.2,0.4-0.6,0.7-0.9,1.1c-0.4-0.4-1-0.7-1.2-1.2c-0.7-2,1.6-4.6,3.8-4.2c0.2,0,0.5,0.1,0.5,0.3
			c0.8,1.8,2.9,2.1,3.8,3.8c0.1,0.3,0.4,0.5,0.5,0.8c0.4,1.4,0.8,2.7,1.1,4.1c0.7-0.3,1.6-0.9,2-0.7c1.4,0.8,3,1.6,3.8,2.9
			c0.9,1.5,1.1,3.4,1.6,5.2c0.2,0.9,0.4,1.7,0.6,2.6c0.8,2.2,2.1,3.2,4.5,3.3c0.7,0,1.4,0,2.1,0.2c2.8,0.9,3.2,3,2,6
			c-0.6,1.7-1.6,3.2-1.4,5.1c0.2,2.3,0.8,3.1,3.1,3.6c1.1,0.2,2.1,0.5,3.1,0.8c1.4,0.4,1.7,1.3,1,2.5c-0.3,0.5-0.6,1-0.9,1.6
			c-0.5,1-0.3,1.9,0.6,2.5c2.5,1.7,2.2,4.2,2,6.6c0,0.8-0.4,1.5-0.4,2.3c0,0.5,0.1,1.1,0.2,1.7c0.7-0.1,1.6,0,2-0.4
			c1-0.8,1.8-1.1,3.1-0.8c2.3,0.6,2.9,2.2,1.5,4.2c-0.8,1.3-1.6,2.6-2.3,3.9c-0.8,1.5-1.9,2.6-3.6,3.1c-1.8,0.6-2.5,3.6-1.1,5
			c0.8,0.8,2.4,0.6,2.9-0.5c0.6-1.2,1-2.7,2.5-2.9c2-0.3,4.1-0.5,6.1-0.3c1.8,0.2,2.3,2.7,1,4.3c-1,1.3-2.2,2.5-2.3,4.5
			c2.4,0.2,5-1.6,7.3,0.7c-1.6,0.6-3.1,1.2-4.6,1.7c1.3,1.2,2.5,2.2,2.4,4c0,0.3,0,0.7-0.1,0.9c-1.1,1.1-0.5,1.8,0.4,2.7
			c0.5,0.5,0.4,1.6,0.7,2.8c0.8,0.2,2,0.5,3.2,0.9c2.1,0.6,2.3,1.4,0.9,3c-0.9,1-1.4,1.8,0.2,2.8c0.7,0.4,1,1.4,1.3,1.8
			c1.3,0.9,2.6,1.5,3.7,2.5c1.5,1.3,1,4.7-0.1,6.1c-1.2,1.5-1.8,3.1-1.3,4.9c0.3,1.4,1.2,2.6,1.8,3.9c1.1,2.8,0.5,6-1.4,7.7
			c-1.5,1.2-3.1,1.9-5.1,1.2c-0.9-0.3-1.3-0.9-0.9-1.8c0.1-0.4,0.4-0.8,0.3-1.1c-0.1-0.6-0.3-1.2-0.5-1.9c-0.6,0.3-1.7,0.5-1.8,0.9
			c-0.5,1.8-1.8,2-3.3,2.1c-0.9,0.1-1.4,0.7-0.7,1.5c0.6,0.6,1.2,1.3,2,1.6c4.3,2.1,7.4,8.9,2.7,12.9c-0.8,0.7-1.4,1.7-2.2,2.7
			c2.9,1.9,2.7,4.7,2.7,7.4c0,0.9,0,2-0.4,2.8c-0.5,0.8-1.3,1.7-2.2,2c-0.9,0.3-1.7-0.2-2.3-1.2c-0.2-0.4-0.8-0.7-1.3-1.1
			c-0.4,0.5-0.8,0.9-1.1,1.5c-0.3,0.6-0.4,1.3-0.6,2c-0.6,1.5,0.3,2,1.5,2.2c1.7,0.4,2.3,1.2,2.4,2.9c0,0.1,0,0.1,0,0.2
			c0.5,3.2-0.6,5.4-3.9,6.3c-1.2,0.3-1.5,1.1-1.6,2.4c-0.1,1-0.9,2-1.4,2.9c-0.2,0.4-0.6,0.8-0.5,1.1c0.9,3.3-0.8,5.3-3.5,6.9
			c-0.8,0.5-1.5,1.4-1.7,2.2c-0.4,1.5-1.3,2.3-2.6,2.8c-0.3,0.1-0.6,0.2-0.8,0.3c-4.6,1.6-4.9,3.1-4.2,7.7c0.3,2-0.7,4.4-2.6,5.4
			c-0.1,0-0.2,0-0.3,0.1c-1.3,2.7-4.4,2.4-6.4,3.9c-0.8,0.6-2.1,0.5-3.2,0.5c-2.3,0.1-4.3,1.7-4.7,3.8c-0.3,1.3,0.4,2.3,1.7,2.6
			c0.8,0.2,1.7,0.3,2.5,0.4c-0.4,2.4-4,4.6-6.3,4.1c-1.2-0.3-2.4-0.8-3.7-1c-0.4-0.1-1.1,0.3-1.3,0.6c-0.7,1.2-1.3,2.4-1.7,3.6
			c-1.2,3.9-4,5.7-8,6.2c-0.8,3-3.6,3.5-5.8,4.4c-0.4,1.1-0.8,2.2-1.2,3.3c0.1,1,0.2,2.2,0.3,3.4c0.7-0.1,1.6-0.3,2.6-0.5
			c-0.2-2.1,1.1-3.1,3.1-3.8c1.9-0.6,3.6,0,5.2,1c0.2-0.4,0.4-0.6,0.5-0.9c0.5-1,0.9-1.9,2-0.5c0.7,0.9,2.9,0.6,4-0.3
			c0.6-0.5,1.2-0.8,1.6-1.1c0.3,0.9,0.4,1.9,0.9,2.2c0.6,0.3,1.5,0.1,2.2,0.1c2-0.2,3.1-1.3,3.4-3.3c0.2-1.5,1.1-2.5,2.6-2.9
			c2-0.4,2.8-2.1,3.6-3.7c1.6-2.8,5.2-4.6,8.4-4.1c4.2,0.8,6.8-3.5,6.5-6.7c-0.2-1.7-0.2-1.7,1.5-2.3c0.2,0.5,0.4,0.9,0.6,1.4
			c0.4,1.1,1.6,1.6,2.6,1.1c0.7-0.4,0.8-0.9,0.5-1.8c-0.2-0.5,0.1-1.2,0.2-1.8c0.5,0.1,0.9,0.3,1.4,0.4c0.8,0.1,1.8,0.6,2.3,0.2
			c1.3-0.9,3.2-1.2,3.3-3.3c0.1-1.7-0.3-2-1.9-1.7c-0.2,0-0.4,0.1-0.7,0.2c0.6-2.4,2.1-3.6,4.2-3.9c0.3,0,0.8-0.3,0.9-0.6
			c0.8-1.6,1.8-1.9,3.5-1.1c1.7,0.9,3.5,1.6,5.4,0.8c0.7-0.3,1.2-1,1.6-1.3c1,0.5,1.8,0.7,2.4,1.2c0.5,0.4,1,1.2,1,1.8
			c0,0.4-0.7,1.1-1.2,1.3c-0.6,0.2-1.5,0.2-2-0.1c-1.3-0.7-2.3-0.3-3.2,0.6c-1.8,1.8-4.3,3.1-5,6c-0.1,0.6-0.9,1-1.2,1.5
			c-0.6,0.8-0.5,1.4,0.5,1.8c1.3,0.5,1.6,1.7,0.6,2.7c-0.6,0.6-1.4,1.2-2.2,1.4c-2.2,0.5-2.9,2-3,4c0,1-0.5,1.6-1.4,2.1
			c-1.1,0.6-2.2,1.1-3.2,1.9c-0.8,0.7-1.5,1.6-2,2.5c-0.4,0.9,0.4,1,1.1,1c0.6,0,1.5,0.1,1.6,0.4c0.2,0.5,0,1.4-0.3,1.8
			c-0.6,0.7-1.5,1.3-2.4,1.8c-1.2,0.6-1.9,1.3-1.6,2.7c0.2,1.4-0.7,2.2-1.6,2.7c-2.1,1.1-2.7,3-3.5,5c-0.8,2.2-2.4,4.1-3.6,6.1
			c-1.5,2.5-3.9,3.2-6.5,3.2c-3.6,0-6.3,1.4-7.9,4.6c-0.7,1.3-1.6,1.5-2.8,0.8c-1.3-0.8-2.4-0.3-2.9,0.8c-0.6,1.6-1,3.3-1,5
			c0,0.8,1.1,1.6,1.8,2.6c-0.8,0.3-1.7,1-2.6,1c-1.7,0.1-2.5,1.1-3,2.6c-0.7,2.3-2,4.1-4.1,5.2c-0.4,0.2-0.8,0.8-0.9,1.3
			c-0.6,2.5-2,4.3-4.4,5.4c-1.4,0.6-2.7,1.4-3.9,2.2c-2.2,1.4-3,3.7-3.2,6.1c-0.3,3.3-3.7,6-7,4.9c-2.3,3.3-6.3,3.8-8.9,1.1
			c0.6,2.2-0.5,3.6-2,4.8c-2.1,1.8-4.6,3.1-7.4,2.4c-2.1-0.6-3.5-0.1-5.2,1c-1.4,0.9-2.7,0.1-3.1-1.8c-0.2,1.1-0.3,2.3-0.6,3.4
			c-0.6,2.6-1.7,4.8-4.4,5.7c-0.3,2.8-1.4,4-4.2,4.2c-0.3,0-0.8,0-0.8,0.1c-0.7,2.1-3,1.8-4.4,2.9c-1.3,1-3.4,0.1-4.1-1.5
			c-0.6,1.4-1.8,2-3.1,2.6c-1.5,0.7-2.6,2.2-4,3.2c-0.9,0.6-2,1.2-3,1.4c-1.7,0.3-2.3-0.5-2.5-2.8c-2.1-0.5-3.1,0-4.2,2.1
			c-0.7,1.3-1.4,2.6-2,4c-0.9,1.9-2.4,2.6-4.4,2.8c-2.4,0.2-4.5-0.2-5.6-2.7c-0.6-1.3-1.1-2.7-1.6-4.3c-0.8,0-1.9,0.1-3,0
			c-1.1-0.1-2.1-0.5-3.2-0.8c-1.6,1.7-2.2,1.8-4.4,0.8c-2.3,2.4-5.1,2.5-8.1,1.7c-0.7-0.2-1.2-0.9-1.7-1.4c-0.4-0.3-0.9-0.6-1.3-1
			c-0.7-0.6-1.7-1.2-1.9-1.9c-0.4-1.2,0-2.4,1.3-3.2c0.5-0.2,0.8-0.7,1.2-1.1c-0.1-0.1-0.2-0.3-0.2-0.4c-0.4,0.1-0.8,0.1-1.2,0.2
			c-2.4,0.7-4.4,0.2-6.4-1.3c-0.6-0.4-1.5-0.4-2.3-0.5c-1.4-0.3-2.9-0.3-4-0.9c-1.6-0.8-1.8-1.9-1.1-3.8c0.6-1.8,1.1-3.6,0.6-5.5
			c-0.4-1.6-2.1-2.9-3.8-3c-0.9-0.1-1.8-0.2-2.7-0.3c-1.2,0-1.7-0.7-1.6-1.8c0.1-0.9,0.1-1.8,0.3-2.7c0.7-3.1,0-4.3-3-4.8
			c-1.4-0.2-2.7-0.2-4,0.9c-1.4,1.1-3.3,1.9-5,2.2c-1.3,0.2-3-0.4-4.2-1.1c-2.1-1.4-4.2-2.4-6.8-2.7c-2-0.2-3.2-1.6-3.7-3.4
			c-0.6-1.8,0.3-3.2,1.6-4.4c1.8-1.6,2.7-3.5,2.6-6c-0.1-1.5-0.8-2.3-2.3-2.2c-1.8,0.1-3.6,0.3-5.3,0.6c-1.3,0.3-2,1.4-2.1,2.7
			c-0.1,1.3-1,1.8-1.9,2c-3.9,1.3-7.5-1.2-8.2-5.3c-0.3-1.7,0.2-3.1,1-4.5c1.4-2.3,2-4.6,0.1-6.9c-0.4-0.5-1-1-1.6-1.3
			c-2.9-1.4-4.2-4.3-2.9-7.6c1-2.4,1.3-4.8,0.4-7.4c-0.4-1.1,0.3-2.6,0.5-4.1c-0.7,0.1-1.6,0.3-2.5,0.3c-1,0-2.1,0.2-3-0.2
			c-0.6-0.2-1.1-1.1-1.4-1.8c-0.3-0.5-0.2-1.1-0.4-1.8c-1.1-0.4-1.8,0.1-2.3,1.1c-0.9,2.1-1.8,4.4-4,5.6c-1.4,0.8-2.8,1.6-4.6,1
			c-1.3-0.5-1.8,0-1.7,1.4c0.1,1,0,2.1-0.3,3.1c-0.3,0.8-0.8,1.6-1.4,2.2c-0.9,0.9-5.2,0.9-5.9,0.1c-1.1,2.9-1,3.9,0.7,5.4
			c0.3,0.2,0.6,0.3,0.9,0.5c0.8,0.4,1,1,0.5,1.8c-0.4,0.6-0.6,1.2-0.9,1.9C98.4,312,98.6,312.1,98.7,312.3z M202.8,265.7
			c30.5-0.1,53-23.4,54.4-51.5c1.7-33.5-24.3-56.2-51.6-57.4c-32.7-1.4-56.5,23.8-57.4,52.5C147.1,241.4,172.7,265.8,202.8,265.7z
			 M264.6,162.3c-1.3,0.4-3.3,0.8-5.1,1.4c-2.5,0.9-5,1.7-6.7,4.2c-1.4,2-2.3,4-2.6,6.5c-0.3,2.5-0.3,4.8,0.7,7.1
			c2.7,6.1,5.4,12.1,8,18.2c5.1,11.6,10.1,23.3,15.2,34.8c1,2.3,2.6,4.4,5.2,5.2c2.8,0.9,5.5,0.2,8-1.3c2.3-1.4,3.4-3.4,3.7-6.1
			c0.3-2.9,0.8-5.8,1.2-8.7c0.1-1.1,0-2.3,0.3-3.3c1.2-4.4,0.4-8.9,0.5-13.4c0-3.2-0.7-6.5-1.1-9.7c-0.4-2.8-0.7-5.7-1.5-8.5
			c-1.2-4.2-2.8-8.2-5.3-12c-2.4-3.5-5.1-6.7-8.2-9.3C273.6,164.5,269.7,162.8,264.6,162.3z M112.5,216.9c-0.1,0-0.3,0-0.4,0
			c0.2,1.8,0.3,3.7,0.6,5.5c0.6,3.5,1.2,6.9,2,10.3c1,4.4,1.7,8.9,5,12.6c3.7,4.2,7.3,8.3,12.3,10.9c2,1.1,3.9,2.2,6.3,1.8
			c1.2-0.2,2.5-0.3,3.7-0.6c6.1-1.4,9.8-2.4,11.2-9.8c0.4-2.2,0.9-4.4-0.1-6.6c-2.5-5.5-4.8-11.1-7.3-16.6
			c-5.5-12.5-10.9-25-16.5-37.5c-1.8-4.1-2.7-4.5-6.5-4.2c-3,0.2-5.8,1.2-6.9,4.4c-0.4,1.3-0.7,2.7-1,4c-0.8,4.3-1.8,8.6-2.2,13
			C112.2,208.4,112.5,212.7,112.5,216.9z M236.9,296.2c0.9-0.1,2.2,0.1,3.4-0.3c2.5-0.7,5.1-1.4,7.3-2.6c2.4-1.3,4.6-3.1,6.6-4.9
			c2.9-2.6,4.1-6.3,5.9-9.6c2-3.7,2.7-7.7,3.1-11.8c0.2-2-0.3-3.8-0.9-5.7c-1-3.2-2.3-6.3-5.2-8.3c-2.1-1.5-4.5-2.5-7.2-1.6
			c-3.1,1.1-5.6,3.2-7.5,5.9c-4.7,6.6-9.2,13.2-13.7,19.9c-1.7,2.5-4,4.7-4.5,7.8c-1,5.2-1,6.2,3.2,9.1
			C230.3,295.9,233.4,296.1,236.9,296.2z M181.3,136.8c-0.1-3.1-0.9-5.3-2.4-7.4c-1.2-1.7-2.6-3.2-4.7-3.3c-2.3-0.2-4.7-0.1-7.1,0.1
			c-1.6,0.2-3.3,0.8-4.8,1.5c-1.9,0.9-3.7,2.1-5.5,3.3c-1.9,1.4-4.2,2.6-5.5,4.5c-2.7,3.7-5,7.6-7.2,11.6c-2.2,4-4.3,8-2.7,12.9
			c0.9,2.8,1.4,5.8,3.8,7.9c2.1,1.9,4.6,3.2,7.4,2.6c4.8-0.9,8.5-3.8,11.3-7.6c5.6-7.7,10.9-15.7,16.2-23.6
			C180.7,138.4,181,137.4,181.3,136.8z M157.2,286.2c0.2,2.8,0.7,5,1.7,6.4c2.5,3.7,6.1,5.2,10.4,5.6c2.6,0.2,5.1-0.7,7.6-1.1
			c4.6-0.7,9-1.7,13.3-3.4c0.9-0.3,1.8-1.1,2.3-1.9c1.9-3,3.6-6.2,5.4-9.2c1.6-2.6,1.7-5.3,0.1-8c-1.9-3.1-4.3-4.4-7.3-3.8
			c-8.9,1.7-17.7,3.4-26.6,5.2c-2.9,0.6-5.2,2.1-6.1,5C157.6,282.6,157.5,284.4,157.2,286.2z M232.3,125.1
			c-4.4,0.4-8.9,0.7-13.1,2.6c-3,1.4-5.9,2.8-8.1,5.3c-3.5,4-6.1,8.3-4.8,14c0.7,3,3.2,5.1,6.2,4.9c2.6-0.2,5.1-0.8,7.6-1.3
			c4.4-0.8,8.9-1.5,13.3-2.3c3.4-0.6,6.9-0.8,9.9-2.8c1.8-1.2,3.7-2.2,4-4.7c0.4-2.8,0-5.5-0.6-8.3c-0.4-1.8-1.1-3.4-3-4.3
			C240.1,126.6,236.6,124.4,232.3,125.1z"/>
		<path class="st0" d="M287.2,37.1c-0.5,0-0.9,0.1-1.2,0c-0.4-0.1-1.2-0.4-1.2-0.6c0-0.5,0.1-1.2,0.5-1.6c0.4-0.4,1.1-0.6,1.6-0.5
			c1.2,0.1,2.4,0.4,3.6,0.8c1.1,0.4,1.5,1.7,1,3.1c-0.2,0.4-0.4,0.8-0.6,1.2c-0.7,1.7-0.1,2.7,1.6,2.7c1.1,0,1.3,0.7,1.5,1.5
			c0.7,2.6,0.9,2.8,3.7,2.7c1.3,0,2.6-0.3,3.9-0.2c0.8,0,2,0.4,2.2,0.9c0.2,0.7-0.2,1.8-0.7,2.4c-1.2,1.7-2.9,2.7-5.1,1.8
			c-0.7-0.3-1.5-1-1.9-1.7c-0.7-1.3-0.9-1.4-1.8-0.4c-1.2,1.3-2.6,1.9-4.4,1.7c-1.4-0.2-1.7-0.5-1.5-1.9c0.1-0.8,0.1-1.6,0-2.4
			c0-1.1-0.9-1.3-1.7-1.3c-0.9-0.1-1.9-0.2-1.5-1.4c0.2-0.6,1.2-1,1.8-1.5c0.3-0.2,0.7-0.3,1-0.5c-0.2-0.3-0.4-0.8-0.7-0.9
			C285.1,39.7,285,39.2,287.2,37.1z"/>
		<path class="st0" d="M363.2,247.1c-0.1-3.6,3.8-5.2,3.8-8.7c-1.1,1-2,1.8-2.9,2.6c-0.8,0.7-1.8,0.9-2.9,0.6
			c-1.2-0.4-1.7-0.8-1.5-2.3c0.3-2.4,1.6-3.9,3.8-4.9c1-0.4,2-1.2,3.1-1.5c1.3-0.4,2.6-0.3,3.2,1.3c0.2,0.5,0.8,0.9,1.2,1.3
			c0.5-0.4,1.1-0.8,1.4-1.4c0.5-0.8,0.8-1.7,1.3-2.5c0.4-0.8,1.1-1.5,2.1-1.2c1,0.3,1.4,1.2,1.2,2.3c-0.3,1.9-2.3,4.8-5.3,5.5
			c-2.2,0.5-3.4,1.6-4.2,3.7c-0.6,1.7-1.9,3.1-2.9,4.6C364.4,246.8,363.8,246.9,363.2,247.1z"/>
		<path class="st0" d="M50.7,246.4c1.4,0.2,2.6,0.1,3.6,0.5c0.8,0.3,1.2,1.3,0.7,2.2c-0.6,1.1-0.5,1.8,0.8,2.1
			c0.2,0.1,0.6,0.5,0.5,0.7c0,0.3-0.5,0.7-0.6,0.7c-1.3-0.4-2.6,0.1-3.9,0.3c-1.8,0.2-4.6-2.6-3.8-4.9c0.5-1.5,1.2-3,1.8-4.6
			c0,0-0.2-0.1-0.3-0.1c-3.2,0-4.5-1.7-3.2-4.7c0.3-0.8,1.2-1.8,1.9-1.8c0.8,0,2,0.7,2.4,1.5c1.3,2.5,2.2,5.2,0.2,7.8
			C50.7,246.3,50.7,246.6,50.7,246.4z"/>
		<path class="st0" d="M270.2,63.4c-1.2-0.2-2.2-0.5-3.3-0.7c-0.8-0.2-1.6-0.3-1.6-1.4c0-0.1-0.1-0.4-0.2-0.4
			c-2-0.3-0.6-1.5-0.6-2.5c-1.6,0.7-1.6-1.1-2.5-1.6c0.3-0.4,0.6-0.9,1-1c0.9-0.2,1.9-0.2,2.8,0c0.4,0.1,0.8,0.6,0.9,1.1
			c0.2,0.6-0.1,1.2,0,1.8c0.2,0.7,0.6,1.6,1.2,1.8c1.5,0.6,3.2,1,4.8,1.3c1.4,0.2,2.4,1.4,2.1,2.8c-0.3,1-1.1,1.5-1.9,1
			c-0.9-0.5-1.3-0.1-1.8,0.3c-1,0.7-2,1.3-3.3,1c-0.9-0.2-1.1-0.7-0.5-1.4C268.3,64.8,269.1,64.2,270.2,63.4z"/>
		<path class="st0" d="M211.5,42c1.8,1.8,3.9,2.3,6.1,2.6c1.6,0.2,3.3,0.2,4.9,0.3c1.3,0.1,1.7,0.7,1.6,2c-0.1,0.9,0,1.8-0.1,2.6
			c-0.1,0.7-0.3,1.5-0.8,1.9c-0.3,0.3-1.3,0.4-1.7,0.1c-0.8-0.5-1.6-1.2-2-2.1c-0.7-1.4-1.7-2-3.2-2.4c-2-0.5-3.9-1.3-4.6-3.5
			C211.5,43,211.5,42.5,211.5,42z"/>
		<path class="st0" d="M141.3,366.7c-0.3,2.3-0.1,2.4,3,1.5c0.1,0.4,0.1,0.8,0.1,1.2c0,0.4,0,0.9,0.4,1.6c0.6-0.5,1.2-0.9,1.7-1.4
			c0.5-0.6,1.2-1.3,1.8-0.5c0.3,0.4,0.3,1.5,0,1.9c-1.3,1.9-2.7,3.8-5.5,3.5c-0.3,0-0.8,0-1-0.2c-0.4-0.3-0.7-0.7-0.9-1.1
			c-1-1.9-2.7-3.6-1.9-6.1C139.4,366.2,140,366.1,141.3,366.7z"/>
		<path class="st0" d="M128.6,61.2c-0.7,1.6-1.4,3.3-3.8,3.4c-0.2,0-0.4,0.5-0.6,0.7c-0.7,0.6-1.3,1.3-2,1.7
			c-0.3,0.2-1.1,0.1-1.4-0.2c-0.3-0.3-0.4-1.2-0.2-1.4c0.9-1,1.9-1.8,2.9-2.6c0.7-0.6,1.4-1.1,2-1.7c1.1-1.1,2-2.4,3.3-3.2
			c0.6-0.4,1.9-0.3,2.8,0c0.9,0.3,0.8,1.7,0,2.2C130.7,60.6,129.7,60.8,128.6,61.2z"/>
		<path class="st0" d="M382.4,212.9c1,2.1,0.2,3.1-1.7,3.5c-0.3,0.1-0.4,0.8-0.6,1.1c-0.4,0.6-0.7,1.3-1.2,1.6c-0.6,0.3-1.4,0-2.1,0
			c0.1-0.7-0.1-1.6,0.3-2c0.9-1,1.5-2.1,1.9-3.4c0.2-0.6,1.6-0.9,2.5-1.1C381.7,212.6,382.2,212.8,382.4,212.9z"/>
		<path class="st0" d="M52.5,260.5c0.3,0.8,0.7,1.6,1,2.3c0.4,0.8,0.8,1.6,1,2.4c0.1,0.4-0.4,0.9-0.6,1.3c-0.4-0.2-1-0.4-1.3-0.7
			c-0.5-0.5-1-1.2-1.4-1.9c-0.3-0.6-0.7-1.2-0.8-1.8c-0.1-1.2-0.1-2.4,0-3.6c0.1-0.5,0.5-1.1,0.7-1.6c0.3,0.4,0.8,0.7,1,1.2
			c0.4,0.7,0.6,1.5,0.9,2.2C52.9,260.3,52.7,260.4,52.5,260.5z"/>
		<path class="st0" d="M158.2,377.2c-1.1,0-1.8-0.8-1.5-1.8c0.3-1.1-0.4-1.3-1.1-1.5c-0.5-0.1-0.9-0.4-1.4-0.5
			c0.3-0.5,0.5-1.2,0.9-1.4c0.5-0.3,1.3-0.1,1.9-0.1c0.2,0,0.4,0.3,0.4,0.6c0.2,1,0.7,1.6,1.9,1.4c0.3,0,1,0.8,1.1,1.2
			C160.4,376.3,159.4,377.2,158.2,377.2z"/>
		<path class="st0" d="M239.5,55.1c1.2-0.3,2.4,0,3.3,0.9c0.8,0.8,1.3,2.1,0.6,3.2c-0.4,0.6-1.2,1.2-2,1.4c-0.8,0.2-1.3-0.3-1.3-1.3
			C240,57.9,239.7,56.6,239.5,55.1z"/>
		<path class="st0" d="M273.4,24.6c1.8,0.1,2.1,0.5,2,2.3c0,0.9,0,1.8,0,2.6c-0.1,0.9-0.7,1.2-1.5,0.9c-0.7-0.3-1.1-0.8-0.7-1.7
			c0.2-0.4,0.3-1,0.4-1.5c-0.6,0-1.1,0.1-1.7,0.1c-0.3,0-0.6,0-0.9,0c0-0.3-0.1-0.7,0-1C271.5,25.1,272.2,24.6,273.4,24.6z"/>
		<path class="st0" d="M217.6,57c-1.1-0.1-1.8-0.1-2.7-0.2c0.8-1.3,2-1.3,2.9-1.1c0.7,0.2,1.8,0.8,1.9,1.5c0.3,1.1,0.1,2.3-0.2,3.4
			c-0.1,0.4-1.2,0.8-1.8,0.7c-0.8-0.1-1.1-0.8-0.7-1.7C217.4,58.8,217.4,58,217.6,57z"/>
		<path class="st0" d="M177.2,377.4c-0.9,0.6-1.7,1.2-2.6,1.7c-0.5,0.3-1.1,0.4-1.6,0.4c-0.2,0-0.3-0.8-0.4-1.3
			c-0.1-0.5-0.1-1.1-0.1-1.6c-0.1-1.4,0.7-1.9,2-1.3c0.7,0.3,1.4,0.5,2.2,0.7c0.9,0.2,1.3,0.7,0.9,1.6
			C177.4,377.6,177.3,377.5,177.2,377.4z"/>
		<path class="st0" d="M48.7,279.1c1.2,0.7,2,1.5,2,2.8c0,0.8,0.5,1.6,0.7,2.4c0.1,0.5,0.1,1.2-0.1,1.6c-0.1,0.3-1,0.5-1.2,0.3
			c-0.4-0.3-0.8-0.9-0.8-1.3C49,283.1,48.9,281.2,48.7,279.1z"/>
		<path class="st0" d="M377.1,195.2c1.2-0.9,2.4-1.7,3.6-2.5c0.8,0.7,0.3,1.3-0.2,1.8c-0.2,0.3-0.5,1-0.4,1.1
			c1.4,1.3,0.2,1.8-0.7,2.5c-0.3,0.2-0.6,0.4-1.3,0.9c0.1-1,0.5-1.7,0.3-2.3C378.2,196,377.5,195.6,377.1,195.2z"/>
		<path class="st0" d="M134.3,57.7c-0.6-0.6-0.9-0.9-1.2-1.2c0.8-0.6,1.6-1.2,2.4-1.7c0.1-0.1,0.6,0.6,0.9,0.9
			C135.7,56.3,135,57,134.3,57.7z"/>
	</g>
	<g>
		<path class="st1" d="M4.6,163.4l25,4.2l0.7,0.1l6.6,1.1l0.6,0.1l16.7,2.8l-1.2,7.3l-19.6-3.3l0.4-2.2l-0.1,0.1l-1.6,1.9l-4.5,5.5
			l24.3,4.1l-1.2,7.3l-28.5-4.8l-0.7-0.1l-6.6-1.1l-0.6-0.1L1.2,184l1.2-7.3l17.3,2.9l4.5-5.5l-20.8-3.5L4.6,163.4z"/>
		<path class="st1" d="M62.6,145.7l-2.5,6.9l-2.1,5.8l-2.5,6.9l-6.9-2.5L8.2,148.3l2.5-6.9l40.4,14.5l2.1-5.8l-40.4-14.5l2.5-6.9
			l40.4,14.5L62.6,145.7z"/>
		<path class="st1" d="M28.3,102.6l3.7-6.4l6.4,3.7l11.8,6.8l0,4.1l3.6-2l0.3,0.2l0.6,0.4l5.8,3.3l0.6,0.3l14.7,8.4l-3.7,6.4
			l-17.2-9.9l1.1-2l-0.1,0.1l-2.1,1.2l-6.1,3.5L68.8,133l-3.7,6.4l-25.1-14.4l-0.6-0.4l-5.8-3.3l-0.6-0.3l-5.2-3l-6.4-3.7l3.7-6.4
			L28.3,102.6z M46.6,113.1l-11.9-6.8l-3.1,5.3l8.8,5.1L46.6,113.1z"/>
		<path class="st1" d="M49.4,72.8l4.8-5.6l5.6,4.8l10.4,8.8l-0.8,4l3.9-1.4l0.2,0.2l0.5,0.5l5.1,4.3l0.5,0.4l12.9,10.9l-4.8,5.6
			L72.7,92.5l1.5-1.7L74,90.8l-2.3,0.8L65,94L83.9,110l-4.8,5.6L57,96.9l-0.5-0.5l-5.1-4.3l-0.5-0.4l-4.5-3.8l-5.6-4.8l4.8-5.6
			L49.4,72.8z M65.5,86.4l-10.5-8.8l-4,4.7l7.7,6.6L65.5,86.4z"/>
		<path class="st1" d="M89.9,69.9l-2.2,0.4L99,83.2l5.1,5.8l-5.5,4.9l-5-5.8l-6.8-7.7l-6.3-7.2l1.7-1.4l-2.6,0.5l0,0l-2.1,0.4
			L76.8,72l-4.4-5L72,66.5l2.1-0.5l-8.7-10l5.5-4.9l11.5,13.2l2.2-0.4L89.9,69.9z"/>
		<path class="st1" d="M103.3,46.5l-4.5-7l-5.2,3.3l19.3,29.9l5.2-3.3l-7.5-11.6l-1.7-2.6l-2.7-4.2l8.5-0.4l0.4,0.6l3.6,5.6l0.4,0.5
			l5.2,8l4,6.2l-6.2,4l-5.2,3.3l-6.2,4l-4-6.2L87.5,46.9l-4-6.2l6.2-4l5.2-3.3l6.2-4l4,6.2l4.5,6.9L103.3,46.5z"/>
		<path class="st1" d="M127.1,16.6l6.8-2.8l2.8,6.8l6.9,16.6l0.3,0.7l2.6,6.1l0.2,0.6l6.5,15.6l-6.8,2.8l-7.6-18.3l2.1-0.9l-0.1,0
			l-2.4-0.3l-7-0.9l9.5,22.8l-6.8,2.8l-11.2-26.7l-0.3-0.7l-2.6-6.1l-0.2-0.6l-2.3-5.5l-2.8-6.8l6.8-2.8L127.1,16.6z M135.3,36.1
			L130,23.4l-5.7,2.4l3.9,9.4L135.3,36.1z"/>
		<path class="st1" d="M169.1,4.2l2.6,11.8l0.1,0.6l1.4,6.5l0.2,0.7l3.7,16.5l2.9,12.9l-7.2,1.6L169.9,42l-4.3-19.4l2.2-0.5
			l-9.2-2.9l8.2,37.1l-7.2,1.6l-9.1-41.2l-0.2-0.7l-0.2-0.8l-1.3-5.7l-0.2-0.7l14.9,4.7l-1.7-7.6L169.1,4.2z"/>
		<path class="st1" d="M207,1l0.2,7.4l0.3,8.2l-7.4,0.2l-0.3-8.2l-6.1,0.2l0.3,10.2l7.6,4.1l0.3,8l-7.6-4.1l0.6,17.3l6.1-0.2l0-0.3
			l0-1.4l0-0.2l0-0.7l0-0.8l-0.2-5.9l0-0.6l7.5,4l0.1,4l0.1,1.7l0.1,2.3l0.2,5l-7.4,0.2l-6.1,0.2l-7.4,0.2l-0.2-7.4l-0.7-20.4
			l1.9-0.1l-2-1l-1.9-1l0-0.7l-0.2-6.7l0-0.6l1.9,1l-0.2-5.9l-0.2-7.4l7.4-0.2l6.1-0.2L207,1z"/>
	</g>
	<g>
		<path class="st1" d="M258,348.5l2.4,3.4l1.8,2.5l0.5,0.7l2.3,3.2l-6,4.1l-1.5-2.1l-0.8-1.1l-0.1-0.2l-0.4-0.5l-5,3.4l12.7,17.9
			l5-3.4l-0.2-0.3l-0.8-1.1l-0.1-0.2l-0.4-0.6l-0.5-0.7l-3.3-4.7l-0.4-0.6l8.5-0.7l2.3,3.2l1,1.4l1.3,1.8l2.9,4.1l-6,4.1l-5,3.4
			l-6,4.1l-4.2-5.9l-12.7-17.9l-4.2-5.9l6-4.1L258,348.5z"/>
		<path class="st1" d="M278.6,331.6l0.5,0.5l0.9,1.1l3.4,3.9l0.4,0.5l0.8,0.9l5.4,6.2l4.8,5.5l4.6,5.2l4.7,5.4l-3.7,3.1l-1.9,1.6
			l-2.4,2l-1.4,1.2l-6.5,5.4l-4.8-5.5l10.3-8.6l-4.5-5.2l-2.4,2l-1.4,1.2l-0.9,0.7l-5.6,4.7l-4.8-5.5l-14-16.1l-0.5-0.5l-0.3-0.3
			l-4-4.6l-0.4-0.5l8.3-1.6l5.2,6l4.8,5.5l6.4,7.4l4.7-3.9l-4.4-5.1l-1-1.2l-8.7-10.1L278.6,331.6z"/>
		<path class="st1" d="M298.6,315.7l2.9,3.1l2.1,2.2l0.6,0.7l2.7,2.9l-5.4,4.9l-1.8-1.9l-0.9-1l-0.2-0.2l-0.4-0.5l-4.5,4.1l15,16.1
			l4.5-4.1l-0.3-0.3l-0.9-1l-0.1-0.1l-0.5-0.5l-0.6-0.6l-3.9-4.2l-0.5-0.5l8.3-1.8l2.7,2.9l1.2,1.3l1.5,1.6l3.4,3.7l-5.4,4.9
			l-4.5,4.1l-5.4,4.9l-4.9-5.3l-15-16.1l-4.9-5.3l5.4-4.9L298.6,315.7z"/>
		<path class="st1" d="M344.5,325.6l-7.5,7.8l-5.1,5.2l-5.3-5l-12.3-11.5l-2.5-2.3l-0.8-0.7l-1.5-1.4l-14-13l5.1-5.2l31,29l7.5-7.8
			L344.5,325.6z"/>
		<path class="st1" d="M322.6,293.4l8.7-10.2l4.9,4l0.7,0.6l3.8,3.2l0.8,0.7l3.8,3.2l1.8,1.5l-8.7,10.2l6.8,5.6l3.9-4.6l-4.5-3.7
			l-0.5-0.4l8-2.9l1.7,1.4l1.3,1.1l3.1,2.5l1.2,1l-4.7,5.5l-3.9,4.6l-4.7,5.5l-5.6-4.6l-6.8-5.6l-5.6-4.6l-4.7-3.9l-5.6-4.6
			L322.6,293.4z M334,294.9l-1.9-1.5l-3.9,4.6l4.6,3.8l3.9-4.6l-0.8-0.7l-0.2-0.2l-0.8-0.6L334,294.9z"/>
		<path class="st1" d="M344.6,262.8l0.5,0.3l5.7,3.5l1.4,0.8l-3.9,6.1l-1.4-0.8l-3.3,5.1l2.9,1.8l13.8-7.1l0.2,0.1l0.3,0.2l5.6,3.5
			l0.6,0.4l2.6,1.6l5.5,3.4l0.7,0.4l-11.1,17.3l-0.7-0.4l-5.5-3.4l-5-3.1l3.9-6.1l5,3.1l3.3-5.1l-5.1-3.1l1.2-1.9l-0.1,0.1l-2.2,1.1
			l-13.7,7.2l-0.4-0.3l-0.2-0.1l-5.5-3.4l-0.1-0.1l-0.6-0.4l-5-3.1l-0.5-0.3L344.6,262.8z"/>
	</g>
</g>
</svg>
